<svg xmlns="http://www.w3.org/2000/svg" viewBox="0 0 512 512"><defs><linearGradient id="g" x1="0" y1="0" x2="0" y2="1"><stop offset="0" stop-color="#7a55ff"/><stop offset="1" stop-color="#2a1d5c"/></linearGradient></defs><rect width="512" height="512" rx="112" fill="url(#g)"/><path transform="translate(60 70) scale(1.6)" d="M0 -14 L4 -4 L15 -4 L6 3 L9 14 L0 7 L-9 14 L-6 3 L-15 -4 L-4 -4Z" fill="#ffe14d"/><path transform="translate(456 120) scale(1.3)" d="M0 -14 L4 -4 L15 -4 L6 3 L9 14 L0 7 L-9 14 L-6 3 L-15 -4 L-4 -4Z" fill="#ffe14d"/><path transform="translate(440 440) scale(1.1)" d="M0 -14 L4 -4 L15 -4 L6 3 L9 14 L0 7 L-9 14 L-6 3 L-15 -4 L-4 -4Z" fill="#ffe14d"/><path transform="translate(70 380) scale(1)" d="M0 -14 L4 -4 L15 -4 L6 3 L9 14 L0 7 L-9 14 L-6 3 L-15 -4 L-4 -4Z" fill="#ffe14d"/><g transform="translate(26 30) scale(.9)">
<g>
  <g fill="none" stroke-width="30" stroke-linecap="round">
    <path d="M40 420 A216 216 0 0 1 472 420" stroke="#ff5a6e"/>
    <path d="M70 420 A186 186 0 0 1 442 420" stroke="#ff9e4a"/>
    <path d="M100 420 A156 156 0 0 1 412 420" stroke="#ffe14d"/>
    <path d="M130 420 A126 126 0 0 1 382 420" stroke="#5fd36b"/>
    <path d="M160 420 A96 96 0 0 1 352 420" stroke="#4cb8ff"/>
  </g>
  <path d="M168 150 L120 70 L214 118Z" fill="#fff" stroke="#4a2a7a" stroke-width="10" stroke-linejoin="round"/>
  <path d="M344 150 L392 70 L298 118Z" fill="#fff" stroke="#4a2a7a" stroke-width="10" stroke-linejoin="round"/>
  <path d="M130 200 C70 260 80 360 130 410 C150 330 170 250 200 190Z" fill="#ff7ac8"/>
  <path d="M382 200 C442 260 432 360 382 410 C362 330 342 250 312 190Z" fill="#b36bff"/>
  <ellipse cx="256" cy="270" rx="136" ry="128" fill="#fff" stroke="#4a2a7a" stroke-width="10"/>
  <path d="M226 160 L256 18 L286 160Z" fill="#ffd23f" stroke="#4a2a7a" stroke-width="10" stroke-linejoin="round"/>
  <path d="M236 120 L276 100 M240 82 L270 66" stroke="#fff3b0" stroke-width="8" stroke-linecap="round"/>
  <circle cx="204" cy="268" r="20" fill="#2a1d5c"/><circle cx="308" cy="268" r="20" fill="#2a1d5c"/>
  <circle cx="211" cy="260" r="7" fill="#fff"/><circle cx="315" cy="260" r="7" fill="#fff"/>
  <ellipse cx="160" cy="316" rx="22" ry="14" fill="#ff9ec4"/><ellipse cx="352" cy="316" rx="22" ry="14" fill="#ff9ec4"/>
  <path d="M232 332 Q256 356 280 332" fill="none" stroke="#2a1d5c" stroke-width="9" stroke-linecap="round"/>
  <path d="M256 90 l7 16 17 2 -13 11 4 17 -15 -9 -15 9 4 -17 -13 -11 17 -2z" fill="#fff" opacity="0"/>
</g></g></svg>